<?xml version="1.0" encoding="utf-8"?>
<!-- Generator: Adobe Illustrator 17.0.0, SVG Export Plug-In . SVG Version: 6.00 Build 0)  -->
<!DOCTYPE svg PUBLIC "-//W3C//DTD SVG 1.1//EN" "http://www.w3.org/Graphics/SVG/1.1/DTD/svg11.dtd">
<svg version="1.1" id="Isolation_Mode" xmlns="http://www.w3.org/2000/svg" xmlns:xlink="http://www.w3.org/1999/xlink" x="0px"
	 y="0px" width="165px" height="293px" viewBox="0 0 165 293" enable-background="new 0 0 165 293" xml:space="preserve">
<ellipse fill="#F3D069" cx="82.817" cy="82.497" rx="65.189" ry="64.185"/>
<g>
	<g>
		<g>
			<g>
				<path fill="#F36356" d="M123.385,120.262c-0.033-0.074-0.072-0.147-0.107-0.22c-0.062-0.127-0.122-0.253-0.193-0.379
					c-0.051-0.087-0.107-0.173-0.16-0.259c-0.07-0.111-0.138-0.223-0.214-0.332c-0.063-0.09-0.133-0.179-0.2-0.268
					c-0.077-0.102-0.153-0.203-0.235-0.303c-0.073-0.088-0.151-0.173-0.229-0.259c-0.082-0.093-0.166-0.184-0.253-0.271
					c-0.081-0.083-0.167-0.163-0.251-0.241c-0.088-0.083-0.176-0.162-0.267-0.239c-0.089-0.075-0.177-0.145-0.266-0.214
					c-0.092-0.069-0.183-0.134-0.275-0.198c-0.09-0.062-0.182-0.122-0.273-0.177c-0.037-0.021-0.072-0.051-0.109-0.071
					c-0.002,0.001-0.005,0.004-0.008,0.006c-3.751,2.365-5.304,16.762-5.851,22.405h13.462l-4.354-18.389
					C123.543,120.66,123.47,120.461,123.385,120.262z"/>
			</g>
			<g>
				<path fill="#F36356" d="M120.343,116.837c-0.113-0.064-0.227-0.135-0.339-0.186l-23.386-10.259c0,7.811-5.47,13.66-13.595,13.67
					h-0.007h-0.01c-8.13-0.01-13.599-5.86-13.599-13.671l1.401-0.614c0.034-0.016,0.069-0.024,0.104-0.033
					c0-0.002-0.002-0.005-0.002-0.007c-0.032,0.005-0.062,0.017-0.096,0.028c-0.01,0.004-0.023,0.006-0.031,0.011l-24.789,10.874
					c-0.113,0.051-0.225,0.122-0.339,0.186c3.751,2.365,5.304,16.762,5.851,22.405L82.5,152.5l31.992-13.258
					C115.039,133.599,116.592,119.202,120.343,116.837z"/>
			</g>
			<g>
				<path fill="#F36356" d="M45.657,116.837c-0.003-0.003-0.005-0.005-0.008-0.006c-0.035,0.02-0.071,0.048-0.108,0.069
					c-0.093,0.056-0.186,0.117-0.277,0.18c-0.092,0.062-0.182,0.127-0.272,0.197c-0.089,0.068-0.176,0.138-0.265,0.213
					c-0.092,0.078-0.182,0.159-0.271,0.242c-0.081,0.077-0.164,0.154-0.243,0.235c-0.091,0.091-0.179,0.186-0.265,0.284
					c-0.074,0.081-0.147,0.162-0.219,0.246c-0.086,0.105-0.169,0.212-0.251,0.322c-0.062,0.083-0.126,0.164-0.183,0.247
					c-0.082,0.118-0.156,0.237-0.23,0.357c-0.049,0.08-0.101,0.157-0.146,0.236c-0.076,0.135-0.141,0.269-0.205,0.404
					c-0.032,0.065-0.068,0.131-0.097,0.197c-0.087,0.199-0.161,0.398-0.216,0.593l-4.354,18.389h13.462
					C50.961,133.599,49.408,119.202,45.657,116.837z"/>
			</g>
			<g>
				<path fill="#FFFFFF" d="M70.914,105.745c0.008-0.002,0.016-0.005,0.024-0.007c0.756,5.996,5.869,10.633,12.069,10.643
					c0.237,0,0.47-0.019,0.703-0.033c0.149-0.009,0.297-0.008,0.444-0.021c0.325-0.031,0.646-0.081,0.964-0.135
					c0.05-0.011,0.104-0.013,0.152-0.023c5.149-0.971,9.153-5.18,9.815-10.431l0.004,0.001c0-0.001,0-0.001,0-0.001
					c0.031,0.005,0.062,0.017,0.094,0.028v-4.536c-3.234,4.013-7.502,6.457-12.184,6.457c-4.682,0-8.951-2.444-12.184-6.458v4.538
					c0.033-0.012,0.063-0.023,0.096-0.028C70.912,105.74,70.914,105.743,70.914,105.745z"/>
			</g>
			<g>
				<path fill="#FFFFFF" d="M83,107.687c4.682,0,8.949-2.444,12.184-6.457c2.868-3.562,4.923-8.36,5.723-13.792
					c0.121,0.015,0.242,0.024,0.369,0.024c1.682,0,3.046-1.363,3.046-3.045v-6.091v-0.128h-0.007
					c-0.067-1.622-1.401-2.918-3.039-2.918v-3.046c0-1.682-1.364-3.046-3.046-3.046h-2.009l0,0c-2.128,0-3.997-1.092-5.087-2.745
					c-1.091,1.653-2.961,2.745-5.088,2.745H67.769c-1.682,0-3.045,1.364-3.045,3.046v3.046c-1.639,0-2.972,1.297-3.039,2.918H61.68
					v6.219c0,1.682,1.363,3.045,3.045,3.045c0.125,0,0.248-0.01,0.371-0.024c0.797,5.432,2.853,10.229,5.721,13.79
					C74.049,105.243,78.318,107.687,83,107.687z"/>
			</g>
			<g>
				<path fill="#FFFFFF" d="M64.724,75.28v-3.046c0-1.682,1.363-3.046,3.045-3.046h18.276c2.127,0,3.997-1.092,5.088-2.745
					c1.09,1.653,2.959,2.745,5.087,2.745l0,0h2.009c1.682,0,3.046,1.364,3.046,3.046v3.046c1.638,0,2.972,1.297,3.039,2.918h0.007
					V66.237v-0.094h-0.004c-0.06-10.102-9.58-18.276-21.317-18.276c-11.739,0-21.258,8.174-21.318,18.276H61.68v0.094v11.961h0.006
					C61.753,76.577,63.086,75.28,64.724,75.28z"/>
			</g>
			<g>
				<path fill="#FFFFFF" d="M95.09,105.74l-0.004-0.001c-0.662,5.251-4.666,9.46-9.815,10.431
					C90.422,115.2,94.427,110.99,95.09,105.74z"/>
			</g>
			<g>
				<path fill="#FFFFFF" d="M83.71,116.349c-0.233,0.014-0.466,0.033-0.703,0.033h0.006
					C83.248,116.381,83.478,116.361,83.71,116.349z"/>
			</g>
			<g>
				<path fill="#F36356" d="M95.09,105.74c-0.663,5.25-4.668,9.46-9.819,10.43c-0.049,0.01-0.103,0.012-0.152,0.023
					c-0.317,0.054-0.639,0.104-0.964,0.135c-0.147,0.014-0.295,0.013-0.444,0.021c-0.231,0.012-0.462,0.033-0.697,0.033h-0.004
					c-6.202-0.01-11.315-4.647-12.071-10.643c-0.008,0.001-0.016,0.005-0.024,0.007c-0.035,0.008-0.07,0.017-0.104,0.033
					l-1.401,0.614c0,7.811,5.469,13.661,13.594,13.671h0.011h0.011c8.125-0.01,13.595-5.859,13.595-13.67c0,0,0,0,0-0.001
					l-1.4-0.614c-0.011-0.005-0.023-0.007-0.034-0.012c-0.032-0.011-0.062-0.022-0.094-0.028
					C95.09,105.738,95.09,105.738,95.09,105.74z"/>
			</g>
		</g>
		<g>
			<g>
				<g>
					<path fill="#4A4A4A" d="M83.007,118.881h-0.004c-6.339-0.01-11.852-4.09-13.856-9.877l-0.812,0.286l-0.018-15.153l4.447,5.523
						c2.87,3.563,6.505,5.526,10.236,5.526c3.729,0,7.365-1.962,10.237-5.526l4.446-5.517v15.141l-0.802-0.28
						c-1.688,4.913-5.882,8.628-11.148,9.621l-0.194,0.031c-0.379,0.064-0.762,0.123-1.149,0.159c-0.143,0.013-0.28,0.02-0.42,0.024
						l-0.254,0.013C83.48,118.868,83.246,118.881,83.007,118.881z M73.878,107.39c1.328,3.804,4.958,6.485,9.132,6.492
						c0.131,0,0.26-0.01,0.388-0.018l0.527-0.025c0.239-0.023,0.48-0.061,0.72-0.101l0.204-0.032
						c3.463-0.678,6.204-3.119,7.308-6.338c-2.817,1.844-5.939,2.82-9.156,2.82C79.796,110.187,76.686,109.219,73.878,107.39z"/>
				</g>
				<g>
					<path fill="#4A4A4A" d="M97.131,102.798l-3.895-3.136c2.639-3.277,4.483-7.748,5.196-12.588l0.355-2.41l2.418,0.292
						c0.391-0.024,0.615-0.238,0.615-0.539l-0.005-6.115c-0.012-0.293-0.25-0.522-0.541-0.522h-2.5v-5.546
						c0-0.301-0.245-0.546-0.546-0.546h-2.009c-1.861,0-3.634-0.598-5.087-1.668c-1.454,1.07-3.228,1.668-5.088,1.668H67.769
						c-0.301,0-0.545,0.245-0.545,0.546v5.546h-2.5c-0.291,0-0.529,0.229-0.541,0.522l-0.004,0.089v6.026
						c0,0.301,0.244,0.545,0.545,0.545l2.416-0.288l0.429,2.4c0.71,4.838,2.555,9.307,5.194,12.584l-3.895,3.137
						c-2.885-3.582-4.914-8.09-5.923-13.126c-2.188-0.743-3.767-2.817-3.767-5.253v-8.719h0.659
						c0.537-1.002,1.372-1.816,2.386-2.327v-1.137c0-3.058,2.487-5.546,5.545-5.546h18.276c1.209,0,2.331-0.607,3.001-1.622
						l2.088-3.164l2.086,3.165c0.67,1.015,1.791,1.621,3,1.621h2.009c3.058,0,5.546,2.488,5.546,5.546v1.137
						c1.014,0.511,1.849,1.325,2.386,2.327h0.653l0.007,8.719c0,2.435-1.578,4.509-3.766,5.252
						C102.044,94.708,100.013,99.216,97.131,102.798z"/>
				</g>
				<g>
					<path fill="#4A4A4A" d="M106.821,80.698h-4.905l-0.1-2.396c-0.012-0.293-0.25-0.522-0.541-0.522h-2.5v-5.546
						c0-0.301-0.245-0.546-0.546-0.546h-2.009c-1.861,0-3.634-0.598-5.087-1.668c-1.454,1.07-3.228,1.668-5.088,1.668H67.769
						c-0.301,0-0.545,0.245-0.545,0.546v5.546h-2.5c-0.291,0-0.529,0.229-0.541,0.522l-0.1,2.396h-4.899L59.18,66.127
						C59.251,54.68,69.936,45.367,83,45.367c12.106,0,22.168,7.995,23.634,18.276h0.184L106.821,80.698z M91.135,61.902l2.086,3.165
						c0.67,1.015,1.791,1.621,3,1.621h2.009c1.369,0,2.623,0.498,3.592,1.323l-0.004-1.854C101.765,57.451,93.324,50.367,83,50.367
						c-10.324,0-18.767,7.084-18.818,15.791l-0.002,1.852c0.968-0.825,2.222-1.323,3.59-1.323h18.276
						c1.209,0,2.331-0.607,3.001-1.622L91.135,61.902z"/>
				</g>
				<g>
					<path fill="#4A4A4A" d="M46.678,119.142l-2.843-4.113c0.139-0.097,0.279-0.188,0.42-0.272l2.572,4.287
						C46.777,119.074,46.727,119.108,46.678,119.142z"/>
				</g>
				<g>
					<path fill="#4A4A4A" d="M119.321,119.142c-0.052-0.035-0.104-0.07-0.157-0.102l2.592-4.275
						c0.133,0.081,0.264,0.166,0.395,0.255L119.321,119.142z"/>
				</g>
				<g>
					<path fill="#4A4A4A" d="M44.908,121.262l-4.589-1.989c0.04-0.095,0.087-0.19,0.135-0.284l4.502,2.178L44.908,121.262z"/>
				</g>
				<g>
					<path fill="#4A4A4A" d="M45.341,120.502l-4.115-2.839c0.065-0.096,0.136-0.19,0.207-0.284l4.049,2.934L45.341,120.502z"/>
				</g>
				<g>
					<path fill="#4A4A4A" d="M46.335,119.404l-3.217-3.827c0.119-0.101,0.236-0.195,0.355-0.286l3.049,3.963L46.335,119.404z"/>
				</g>
				<g>
					<path fill="#4A4A4A" d="M45.635,120.115l-3.812-3.235c0.092-0.108,0.186-0.212,0.281-0.316l3.688,3.377L45.635,120.115z"/>
				</g>
				<g>
					<path fill="#4A4A4A" d="M46.007,119.709l-3.59-3.482c0.111-0.115,0.226-0.223,0.342-0.331l3.414,3.653L46.007,119.709z"/>
				</g>
				<g>
					<path fill="#4A4A4A" d="M45.117,120.855l-4.361-2.451c0.045-0.077,0.093-0.153,0.141-0.23l4.299,2.556L45.117,120.855z"/>
				</g>
				<g>
					<path fill="#4A4A4A" d="M120.922,120.919l-0.125-0.201l4.25-2.634c0.094,0.149,0.148,0.236,0.199,0.323L120.922,120.919z"/>
				</g>
				<g>
					<path fill="#4A4A4A" d="M119.998,119.712l-0.131-0.125l3.383-3.683c0.134,0.125,0.237,0.223,0.336,0.325L119.998,119.712z"/>
				</g>
				<g>
					<path fill="#4A4A4A" d="M120.664,120.509l-0.146-0.195l3.984-3.021c0.118,0.154,0.191,0.251,0.261,0.351L120.664,120.509z"/>
				</g>
				<g>
					<path fill="#4A4A4A" d="M121.108,121.296l-0.085-0.172l4.508-2.164c0.062,0.124,0.099,0.2,0.133,0.276L121.108,121.296z"/>
				</g>
				<g>
					<path fill="#4A4A4A" d="M119.666,119.405l-0.188-0.151l3.062-3.953c0.114,0.089,0.229,0.18,0.343,0.276L119.666,119.405z"/>
				</g>
				<g>
					<path fill="#4A4A4A" d="M120.375,120.127l-0.18-0.203l3.699-3.363c0.118,0.13,0.212,0.233,0.301,0.34L120.375,120.127z"/>
				</g>
				<g>
					<path fill="#4A4A4A" d="M70.411,108.682l-2.006-4.58l1.401-0.614c0.113-0.052,0.248-0.099,0.39-0.139l0.28-0.068l0.558,2.973
						l-0.097-0.516l0.799,2.361c0.015-0.006,0.028-0.012,0.043-0.018l-0.042,0.019l0.001,0.005l-0.034,0.009L70.411,108.682z"/>
				</g>
				<g>
					<path fill="#4A4A4A" d="M95.612,108.682l-1.463-0.64l0.001-0.003l-0.051-0.025l0.926-1.899l0.488-2.84l0.752,0.233l1.356,0.595
						L95.612,108.682z M94.525,108.174c0.046,0.011,0.094,0.02,0.141,0.028l0.219-1.272L94.525,108.174z"/>
				</g>
			</g>
			<g>
				<g>
					<path fill="#4A4A4A" d="M119.113,119.014L119,118.949l-23.386-10.266l2.008-4.579l23.386,10.259
						c0.183,0.083,0.343,0.17,0.502,0.262L119.113,119.014z"/>
				</g>
				<g>
					<path fill="#4A4A4A" d="M46.879,119.019l-2.443-4.363l0.063-0.036c0.157-0.091,0.316-0.178,0.475-0.249l24.74-10.89
						l0.349-0.098c0.15-0.05,0.292-0.085,0.438-0.11l2.911-0.485l0.002,4.937l-1.771,0.418l-1.232,0.54l-0.004-0.008L46.879,119.019
						z"/>
				</g>
				<g>
					<path fill="#4A4A4A" d="M40.478,139.818l-4.865-1.152l4.381-18.49c0.084-0.3,0.196-0.608,0.331-0.915
						c0.034-0.082,0.081-0.177,0.129-0.271c0.091-0.189,0.182-0.374,0.287-0.56c0.06-0.102,0.107-0.178,0.155-0.255
						c0.142-0.226,0.239-0.383,0.348-0.538c0.047-0.069,0.117-0.164,0.189-0.257c0.146-0.196,0.252-0.331,0.361-0.465
						c0.12-0.142,0.214-0.246,0.31-0.351c0.086-0.099,0.211-0.233,0.341-0.363c0.066-0.07,0.164-0.162,0.26-0.253
						c0.17-0.157,0.284-0.26,0.402-0.36c0.131-0.11,0.248-0.205,0.367-0.296c0.128-0.098,0.254-0.189,0.383-0.276
						c0.127-0.087,0.263-0.176,0.398-0.257c0.017-0.014,0.088-0.059,0.157-0.098l1.161-0.661l1.519,0.76l0.271,0.251l-1.707,1.831
						l1.34,2.097c-0.069,0.046-0.136,0.089-0.201,0.127c-0.017,0.01-0.066,0.044-0.116,0.078c-0.062,0.043-0.115,0.081-0.17,0.123
						c-0.058,0.044-0.114,0.09-0.173,0.139c-0.054,0.046-0.119,0.105-0.184,0.165l-0.146,0.14c-0.078,0.079-0.129,0.134-0.178,0.19
						l-0.193,0.216c-0.034,0.042-0.095,0.12-0.154,0.2l-0.135,0.181c-0.056,0.081-0.106,0.163-0.157,0.245l-0.071,0.114
						c-0.069,0.117-0.107,0.2-0.147,0.284l-0.062,0.123c-0.035,0.077-0.066,0.154-0.09,0.231L40.478,139.818z"/>
				</g>
				<g>
					<path fill="#4A4A4A" d="M49.019,139.483c-1.763-18.189-4.4-20.345-4.695-20.531l2.666-4.229
						c2.308,1.455,5.188,5.529,7.006,24.278L49.019,139.483z"/>
				</g>
				<g>
					<path fill="#4A4A4A" d="M116.98,139.483l-4.977-0.482c1.817-18.75,4.698-22.824,7.006-24.278l2.666,4.229
						C121.381,119.138,118.743,121.294,116.98,139.483z"/>
				</g>
				<g>
					<path fill="#4A4A4A" d="M125.521,139.818l-4.336-18.312c-0.028-0.086-0.062-0.174-0.101-0.263l-0.062-0.119
						c-0.056-0.113-0.084-0.173-0.117-0.233l-0.686-0.938c-0.102-0.114-0.15-0.167-0.201-0.219l-0.152-0.146
						c-0.093-0.087-0.148-0.138-0.205-0.186l-0.348-0.265c-0.045-0.031-0.098-0.065-0.15-0.098l-0.156-0.1
						c0.05,0.033,0.103,0.064,0.156,0.092l1.182-2.191l-1.604-1.923l1.388-1.045l1.673,0.922c0.132,0.081,0.238,0.151,0.343,0.223
						c0.129,0.089,0.249,0.174,0.37,0.266c0.139,0.108,0.253,0.199,0.367,0.295c0.129,0.108,0.249,0.217,0.369,0.33
						c0.131,0.123,0.234,0.221,0.334,0.323c0.102,0.102,0.221,0.23,0.336,0.361c0.091,0.1,0.185,0.203,0.273,0.31
						c0.103,0.125,0.191,0.241,0.279,0.357l-1.916,1.61l1.986-1.519c0.071,0.094,0.143,0.189,0.211,0.285
						c0.088,0.127,0.164,0.247,0.24,0.368l-2.024,1.478l2.115-1.333c0.054,0.086,0.108,0.172,0.159,0.26
						c0.098,0.173,0.17,0.317,0.24,0.462l0.045,0.09c0.062,0.124,0.099,0.2,0.133,0.276c0.146,0.338,0.252,0.63,0.335,0.915
						l0.033,0.126l4.354,18.389L125.521,139.818z"/>
				</g>
			</g>
		</g>
	</g>
	<g>
		<rect x="74" y="154.5" fill="#FFFFFF" width="16.005" height="56"/>
		<path fill="#4A4A4A" d="M92.505,213H71.5v-61h21.005V213z M76.5,208h11.005v-51H76.5V208z"/>
	</g>
	<g>
		<path fill="#FFFFFF" d="M82.5,2.5c-44.183,0-80,35.817-80,80s35.817,80,80,80c44.183,0,80-35.817,80-80S126.682,2.5,82.5,2.5z
			 M82.5,146.5c-35.347,0-64-28.654-64-64s28.653-64,64-64c35.347,0,64,28.654,64,64S117.846,146.5,82.5,146.5z"/>
		<path fill="#4A4A4A" d="M82.5,165C37.01,165,0,127.991,0,82.5S37.01,0,82.5,0C127.99,0,165,37.009,165,82.5S127.99,165,82.5,165z
			 M82.5,5C39.766,5,5,39.766,5,82.5S39.766,160,82.5,160S160,125.234,160,82.5S125.233,5,82.5,5z M82.5,149
			C45.832,149,16,119.168,16,82.5C16,45.832,45.832,16,82.5,16c36.668,0,66.5,29.832,66.5,66.5C149,119.168,119.168,149,82.5,149z
			 M82.5,21C48.589,21,21,48.589,21,82.5S48.589,144,82.5,144c33.911,0,61.5-27.589,61.5-61.5S116.411,21,82.5,21z"/>
	</g>
	<g>
		<rect x="66.5" y="178.5" fill="#FFFFFF" width="32" height="112"/>
		<path fill="#4A4A4A" d="M101,293H64V176h37V293z M69,288h27V181H69V288z"/>
	</g>
	<g>
		<rect x="66.5" y="192" fill="#4A4A4A" width="32" height="5"/>
	</g>
	<g>
		<rect x="66.5" y="272" fill="#4A4A4A" width="32" height="5"/>
	</g>
	<g>
		<path fill="#FFFFFF" d="M37,82.5h-5C32,54.654,54.654,32,82.5,32v5C57.411,37,37,57.411,37,82.5z"/>
	</g>
</g>
</svg>
